<?xml version="1.0" encoding="utf-8"?>
<!-- Generator: Adobe Illustrator 23.0.1, SVG Export Plug-In . SVG Version: 6.00 Build 0)  -->
<svg version="1.1" id="Calque_1" xmlns="http://www.w3.org/2000/svg" xmlns:xlink="http://www.w3.org/1999/xlink" x="0px" y="0px"
	 viewBox="0 0 24 24" style="enable-background:new 0 0 24 24;" xml:space="preserve">
<style type="text/css">
	.st0{fill-rule:evenodd;clip-rule:evenodd;fill:#FF9300;}
</style>
<path class="st0" d="M11.4,12.4l1.9-2.3c0.4-0.5,0.2-1-0.1-2.2c-0.2-0.9,0-1.9,0.6-2.5C15.6,3.6,19.1,0,19.1,0l0.5,0.4l-3.7,4.7
	l0.8,0.6l3.9-4.6l0.5,0.4l-3.6,4.8L18.3,7l3.9-4.6l0.4,0.3l-3.5,4.8l0.8,0.6l3.7-4.7L24,3.8c0,0-2.5,4.4-3.9,6.5
	c-0.5,0.8-1.4,1.2-2.3,1.2c-1.2,0-1.7-0.1-2.1,0.5l-2.3,2.8c2.4,3,4.6,5.5,5.6,6.8c0.8,1,0.1,2.4-1.2,2.4c-0.4,0-0.9-0.2-1.2-0.6
	L8.2,13.4c0,0-0.9,0.7-1.9,1.5C3.1,9.7,0,3.2,0,0.9C0,0.8,0,0,0.7,0C1,0,1.2,0.1,1.4,0.3C1.9,1,6.8,6.9,11.4,12.4 M8.5,16l2,2.4
	l-4.1,5.1C6,23.8,5.6,24,5.1,24c-1.2,0-2-1.4-1.2-2.4L8.5,16z"/>
</svg>
