<?xml version="1.0" encoding="utf-8"?>
<!-- Generator: Adobe Illustrator 23.0.1, SVG Export Plug-In . SVG Version: 6.00 Build 0)  -->
<svg version="1.1" id="Calque_1" xmlns="http://www.w3.org/2000/svg" xmlns:xlink="http://www.w3.org/1999/xlink" x="0px" y="0px"
	 viewBox="0 0 512 512" style="enable-background:new 0 0 512 512;" xml:space="preserve">
<style type="text/css">
	.st0{fill:#FF9300;}
</style>
<path class="st0" d="M512,105c0-8.3-6.7-15-15-15h-54.9l44.5-60H497c8.3,0,15-6.7,15-15s-6.7-15-15-15H15C6.7,0,0,6.7,0,15
	s6.7,15,15,15h56.8L27.3,90H15c-8.3,0-15,6.7-15,15s6.7,15,15,15h78.3c-24,7.9-41.3,30.4-41.3,57v59.5c0,0,0,0.1,0,0.1
	c-0.3,0.8-51.7,257.4-51.7,257.4c-1.6,8.1,3.6,16,11.8,17.7c1,0.2,2,0.3,3,0.3c7,0,13.3-4.9,14.7-12.1l43.5-217.3
	c10.5,8.9,24,14.3,38.8,14.3c15,0,28.7-5.5,39.3-14.7l46.1,217.8c1.5,7.1,7.7,11.9,14.7,11.9c1,0,2.1-0.1,3.1-0.3
	c8.1-1.7,13.3-9.7,11.6-17.8L172,235.4V177c0-26.6-17.3-49.1-41.3-57h247.1c-23.9,7.9-41.3,30.4-41.3,57v59.5c0,0,0,0.1,0,0.1
	c-0.3,0.8-51.7,257.4-51.7,257.4c-1.6,8.1,3.6,16,11.8,17.7c1,0.2,2,0.3,3,0.3c7,0,13.3-4.9,14.7-12.1l43.5-217.3
	c10.5,8.9,24,14.3,38.8,14.3c15,0,28.7-5.5,39.3-14.7l46.1,217.8c1.5,7.1,7.7,11.9,14.7,11.9c1,0,2.1-0.1,3.1-0.3
	c8.1-1.7,13.3-9.7,11.6-17.8l-54.7-258.5V177c0-26.6-17.3-49.1-41.3-57H497C505.3,120,512,113.3,512,105z M112,267
	c-16.5,0-30-13.5-30-30c0-16.5,13.5-30,30-30c16.5,0,30,13.5,30,30v0c0,0,0,0.1,0,0.1C141.9,253.6,128.5,267,112,267z M142,177v8.1
	c-8.8-5.1-19.1-8.1-30-8.1c-10.9,0-21.2,2.9-30,8.1V177c0-16.5,13.5-30,30-30C128.5,147,142,160.5,142,177z M396.5,267
	c-16.5,0-30-13.5-30-30c0-16.5,13.5-30,30-30s30,13.5,30,30v0.1v0C426.5,253.6,413,267,396.5,267z M426.5,177v8.1
	c-8.8-5.1-19.1-8.1-30-8.1s-21.2,2.9-30,8.1V177c0-16.5,13.5-30,30-30S426.5,160.5,426.5,177z M259.6,90h-70.3l35.3-47.6L259.6,90z
	 M252.8,30h69.5l-34.9,47.1L252.8,30z M350.4,42.4l35,47.6h-70.3L350.4,42.4z M413.8,77.9L378.5,30h70.7L413.8,77.9z M196.5,30
	l-34.4,46.3L128.1,30H196.5z M100,42.4l35,47.6H64.7L100,42.4z"/>
</svg>
