<?xml version="1.0" encoding="utf-8"?>
<!-- Generator: Adobe Illustrator 23.0.3, SVG Export Plug-In . SVG Version: 6.00 Build 0)  -->
<svg version="1.1" id="Calque_1" xmlns="http://www.w3.org/2000/svg" xmlns:xlink="http://www.w3.org/1999/xlink" x="0px" y="0px"
	 viewBox="0 0 680.6 284.27" style="enable-background:new 0 0 680.6 284.27;" xml:space="preserve">
<style type="text/css">
	.st0{fill:#FFFFFF;}
	.st1{fill:none;stroke:#FFFFFF;stroke-width:3;stroke-miterlimit:10;}
</style>
<g>
	<path class="st0" d="M106.13,116.65l3.78,3.39c-4.62,4.22-9.51,6.32-14.67,6.32c-5.52,0-10.22-1.94-14.11-5.83
		c-3.89-3.89-5.83-8.59-5.83-14.11c0-5.5,1.94-10.21,5.83-14.11c3.89-3.91,8.59-5.86,14.11-5.86c5.16,0,10.05,2.11,14.67,6.32
		l-3.78,3.44c-3.48-3.09-7.11-4.64-10.89-4.64c-4.09,0-7.58,1.45-10.49,4.35c-2.91,2.9-4.36,6.4-4.36,10.5
		c0,4.12,1.45,7.63,4.36,10.52c2.91,2.9,6.4,4.35,10.49,4.35C99.01,121.29,102.64,119.75,106.13,116.65z"/>
	<path class="st0" d="M137.04,86.89v5.05h-15.99v11.94h15.99v5.05h-15.99v11.94h15.99v5.08h-21.04V86.89H137.04z"/>
	<path class="st0" d="M143.75,86.89h4.61l16.11,27.88V86.89h5.08v39.06h-4.42L148.8,97.73v28.22h-5.05V86.89z"/>
	<path class="st0" d="M188.62,91.95v34.01h-5.08V91.95h-9.11v-5.05h23.29v5.05H188.62z"/>
	<path class="st0" d="M212.28,113.46h-4.61v12.5h-5.05V86.89h11.08c3.14,0.42,5.79,1.72,7.96,3.88c2.59,2.6,3.88,5.73,3.88,9.38
		c0,3.68-1.29,6.82-3.88,9.42c-1.79,1.79-3.16,2.8-4.1,3.03l8.67,13.35h-6.13L212.28,113.46z M207.67,91.97v16.41h4.61
		c2.25,0,4.17-0.8,5.77-2.4c1.6-1.6,2.4-3.54,2.4-5.82c0-2.26-0.8-4.19-2.4-5.79c-1.6-1.59-3.53-2.39-5.77-2.39H207.67z"/>
	<path class="st0" d="M252.25,86.89v5.05h-15.99v11.94h15.99v5.05h-15.99v11.94h15.99v5.08H231.2V86.89H252.25z"/>
	<path class="st0" d="M279.96,86.89c6.35,0.03,11.3,1.83,14.84,5.4c3.89,3.92,5.83,8.63,5.83,14.14c0,5.52-1.95,10.23-5.83,14.14
		c-3.55,3.56-8.5,5.36-14.84,5.4h-3.71V86.89H279.96z M281.3,92.04v28.78c4.02,0,7.32-1.29,9.89-3.88c2.9-2.9,4.35-6.4,4.35-10.52
		c0-4.1-1.45-7.61-4.35-10.52C288.61,93.33,285.32,92.04,281.3,92.04z"/>
	<path class="st0" d="M327.81,86.89v5.05h-15.99v11.94h15.99v5.05h-15.99v11.94h15.99v5.08h-21.05V86.89H327.81z"/>
	<path class="st0" d="M382.03,116.65l3.78,3.39c-4.62,4.22-9.51,6.32-14.67,6.32c-5.52,0-10.22-1.94-14.11-5.83
		c-3.89-3.89-5.83-8.59-5.83-14.11c0-5.5,1.94-10.21,5.83-14.11c3.89-3.91,8.59-5.86,14.11-5.86c5.16,0,10.05,2.11,14.67,6.32
		l-3.78,3.44c-3.48-3.09-7.11-4.64-10.89-4.64c-4.09,0-7.58,1.45-10.49,4.35c-2.9,2.9-4.36,6.4-4.36,10.5
		c0,4.12,1.45,7.63,4.36,10.52c2.91,2.9,6.4,4.35,10.49,4.35C374.92,121.29,378.55,119.75,382.03,116.65z"/>
	<path class="st0" d="M425.41,92.24c3.91,3.91,5.86,8.62,5.86,14.14s-1.95,10.23-5.86,14.14s-8.62,5.86-14.14,5.86
		s-10.23-1.95-14.14-5.86s-5.86-8.62-5.86-14.14s1.95-10.23,5.86-14.14s8.62-5.86,14.14-5.86S421.51,88.33,425.41,92.24z
		 M411.28,91.48c-4.12,0-7.63,1.45-10.54,4.36c-2.9,2.91-4.36,6.42-4.36,10.53c0,4.12,1.46,7.63,4.37,10.55
		c2.91,2.91,6.42,4.37,10.52,4.37c4.12,0,7.63-1.46,10.54-4.37c2.9-2.91,4.36-6.43,4.36-10.55c0-4.12-1.45-7.63-4.36-10.53
		C418.91,92.94,415.4,91.48,411.28,91.48z"/>
	<path class="st0" d="M438.01,86.89h4.61l16.11,27.88V86.89h5.08v39.06h-4.42l-16.33-28.22v28.22h-5.05V86.89z"/>
	<path class="st0" d="M504.27,120.61c-4.02,3.84-8.62,5.76-13.79,5.76c-5.52,0-10.22-1.94-14.11-5.83
		c-3.89-3.89-5.83-8.59-5.83-14.11c0-5.5,1.94-10.21,5.83-14.11c3.89-3.91,8.59-5.86,14.11-5.86c5.16,0,10.05,2.11,14.67,6.32
		l-3.78,3.44c-3.48-3.09-7.11-4.64-10.89-4.64c-4.09,0-7.58,1.45-10.49,4.35c-2.9,2.9-4.36,6.4-4.36,10.5
		c0,4.12,1.45,7.63,4.36,10.52c2.91,2.9,6.4,4.35,10.49,4.35c3.52,0,6.43-0.93,8.74-2.78v-11.79h5.05V120.61z"/>
	<path class="st0" d="M521.53,113.46h-4.61v12.5h-5.05V86.89h11.08c3.14,0.42,5.79,1.72,7.96,3.88c2.59,2.6,3.88,5.73,3.88,9.38
		c0,3.68-1.29,6.82-3.88,9.42c-1.79,1.79-3.16,2.8-4.1,3.03l8.67,13.35h-6.13L521.53,113.46z M516.92,91.97v16.41h4.61
		c2.25,0,4.17-0.8,5.77-2.4c1.6-1.6,2.41-3.54,2.41-5.82c0-2.26-0.8-4.19-2.41-5.79c-1.6-1.59-3.53-2.39-5.77-2.39H516.92z"/>
	<path class="st0" d="M561.5,86.89v5.05h-15.99v11.94h15.99v5.05h-15.99v11.94h15.99v5.08h-21.04V86.89H561.5z M554.78,84.48h-4.81
		l-6.64-6.81h6.15L554.78,84.48z"/>
	<path class="st0" d="M578.15,105.91c-2.77-0.93-5.01-2.25-6.73-3.97c-1.72-1.72-2.58-3.85-2.58-6.38c0-2.49,0.89-4.63,2.67-6.42
		c1.78-1.79,3.94-2.69,6.48-2.69c2.51,0,4.65,0.89,6.45,2.66c1.01,0.98,1.86,2.53,2.54,4.66l-4.59,1.81
		c-0.55-1.5-1.06-2.47-1.51-2.93c-0.8-0.78-1.76-1.17-2.88-1.17c-1.14,0-2.11,0.4-2.91,1.18c-0.8,0.79-1.2,1.75-1.2,2.89
		c0,1.14,0.4,2.11,1.2,2.91c0.89,0.88,2.13,1.68,3.71,2.42c3.06,0.99,5.66,2.56,7.79,4.69c2.39,2.36,3.59,5.22,3.59,8.59
		s-1.19,6.25-3.58,8.63c-2.38,2.38-5.25,3.58-8.61,3.58c-3.37,0-6.24-1.2-8.62-3.59c-1.9-1.9-3.11-4.53-3.61-7.89l4.91-1.78
		c0.31,2.88,1.07,4.92,2.27,6.13c1.4,1.4,3.08,2.1,5.05,2.1c1.97,0,3.65-0.7,5.05-2.1c1.4-1.4,2.1-3.09,2.1-5.08
		c0-1.97-0.7-3.65-2.1-5.05C581.72,107.77,580.09,106.71,578.15,105.91z"/>
	<path class="st0" d="M235.16,179.73l1.66,1.49c-3.81,3.47-8.29,5.2-13.45,5.2c-5.53,0-10.25-1.95-14.15-5.85
		c-3.9-3.9-5.85-8.61-5.85-14.15c0-5.52,1.95-10.23,5.85-14.14c3.9-3.91,8.61-5.86,14.15-5.86c5.16,0,9.64,1.73,13.45,5.2
		l-1.66,1.51c-3.35-2.98-7.28-4.47-11.79-4.47c-4.9,0-9.08,1.73-12.55,5.2s-5.2,7.65-5.2,12.55c0,4.92,1.73,9.11,5.2,12.57
		s7.65,5.2,12.55,5.2C227.87,184.2,231.8,182.71,235.16,179.73z"/>
	<path class="st0" d="M245.12,168.45v17.5h-2.2v-39.06h2.2v19.36h16.36v-19.36h2.2v39.06h-2.2v-17.5H245.12z"/>
	<path class="st0" d="M289.87,170.99h-13.53l-5.44,14.97h-2.34l14.55-39.97l14.53,39.97h-2.32L289.87,170.99z M289.06,168.79
		l-5.96-16.38l-5.96,16.38H289.06z"/>
	<path class="st0" d="M305.03,146.89l14.67,25.39l14.65-25.39h2.51l-0.1,0.17v38.89h-2.2v-35.08L319.7,176.6l-14.89-25.73v35.08
		h-2.2v-38.89l-0.1-0.17H305.03z"/>
	<path class="st0" d="M346.39,172.41v13.55h-2.2v-39.06h10.25c2.98,0.41,5.51,1.65,7.59,3.74c2.49,2.49,3.74,5.49,3.74,9.01
		c0,3.53-1.25,6.54-3.74,9.03s-5.49,3.74-9.01,3.74H346.39z M346.39,149.11v21.07h6.64c2.9,0,5.38-1.03,7.43-3.09
		c2.06-2.06,3.09-4.54,3.09-7.46c0-2.91-1.03-5.4-3.09-7.45c-2.06-2.05-4.54-3.08-7.43-3.08H346.39z"/>
	<path class="st0" d="M380.49,164.32c-2.78-0.93-4.98-2.2-6.59-3.81s-2.42-3.56-2.42-5.86c0-2.25,0.81-4.18,2.42-5.8
		c1.61-1.62,3.56-2.43,5.86-2.43c2.28,0,4.23,0.81,5.86,2.42c0.89,0.86,1.51,1.83,1.86,2.91l-1.98,0.78
		c-0.29-0.8-0.77-1.53-1.44-2.2c-1.19-1.17-2.62-1.76-4.3-1.76c-1.68,0-3.11,0.59-4.3,1.77c-1.19,1.18-1.78,2.62-1.78,4.31
		c0,1.68,0.59,3.11,1.78,4.3c1.11,1.09,2.64,2.09,4.59,3c3.12,1.01,5.75,2.58,7.89,4.71c2.26,2.25,3.39,4.96,3.39,8.15
		c0,3.21-1.13,5.94-3.39,8.2c-2.26,2.26-4.99,3.39-8.18,3.39c-3.19,0-5.92-1.14-8.18-3.42c-1.81-1.81-2.89-3.91-3.25-6.3l2.08-0.76
		c0.23,2.12,1.13,3.96,2.71,5.54c1.84,1.84,4.05,2.76,6.64,2.76c2.6,0,4.83-0.92,6.67-2.76c1.84-1.84,2.76-4.06,2.76-6.67
		c0-2.59-0.92-4.8-2.76-6.64C384.81,166.57,382.84,165.28,380.49,164.32z"/>
	<path class="st0" d="M433.03,146.89v2.2H415.7v16.24h17.33v2.2H415.7v16.24h17.33v2.2H413.5v-39.06H433.03z M428.61,137l-5.98,4.57
		h-2.05l3.98-4.57H428.61z"/>
	<path class="st0" d="M439.75,185.96v-39.06h2.2v36.87h15.14v2.2H439.75z"/>
	<path class="st0" d="M471.19,170.16l-13.43-23.27h2.51l12.01,20.83l12.04-20.83h2.51l-13.45,23.27v15.8h-2.2V170.16z"/>
	<path class="st0" d="M501.44,164.32c-2.78-0.93-4.98-2.2-6.59-3.81s-2.42-3.56-2.42-5.86c0-2.25,0.81-4.18,2.42-5.8
		c1.61-1.62,3.56-2.43,5.86-2.43c2.28,0,4.23,0.81,5.86,2.42c0.89,0.86,1.51,1.83,1.86,2.91l-1.98,0.78
		c-0.29-0.8-0.77-1.53-1.44-2.2c-1.19-1.17-2.62-1.76-4.3-1.76c-1.68,0-3.11,0.59-4.3,1.77c-1.19,1.18-1.78,2.62-1.78,4.31
		c0,1.68,0.59,3.11,1.78,4.3c1.11,1.09,2.64,2.09,4.59,3c3.12,1.01,5.75,2.58,7.89,4.71c2.26,2.25,3.39,4.96,3.39,8.15
		c0,3.21-1.13,5.94-3.39,8.2c-2.26,2.26-4.99,3.39-8.18,3.39c-3.19,0-5.92-1.14-8.18-3.42c-1.81-1.81-2.89-3.91-3.25-6.3l2.08-0.76
		c0.23,2.12,1.13,3.96,2.71,5.54c1.84,1.84,4.05,2.76,6.64,2.76c2.6,0,4.83-0.92,6.67-2.76c1.84-1.84,2.76-4.06,2.76-6.67
		c0-2.59-0.92-4.8-2.76-6.64C505.76,166.57,503.78,165.28,501.44,164.32z"/>
	<path class="st0" d="M536.69,146.89v2.2h-17.33v16.24h17.33v2.2h-17.33v16.24h17.33v2.2h-19.53v-39.06H536.69z M532.28,137
		l-5.98,4.57h-2.05l3.98-4.57H532.28z"/>
	<path class="st0" d="M562.94,146.89v2.2h-17.33v16.24h17.33v2.2h-17.33v16.24h17.33v2.2h-19.53v-39.06H562.94z"/>
	<path class="st0" d="M579.37,164.32c-2.78-0.93-4.98-2.2-6.59-3.81s-2.42-3.56-2.42-5.86c0-2.25,0.81-4.18,2.42-5.8
		c1.61-1.62,3.56-2.43,5.86-2.43c2.28,0,4.23,0.81,5.86,2.42c0.89,0.86,1.51,1.83,1.86,2.91l-1.98,0.78
		c-0.29-0.8-0.77-1.53-1.44-2.2c-1.19-1.17-2.62-1.76-4.3-1.76c-1.68,0-3.11,0.59-4.3,1.77c-1.19,1.18-1.78,2.62-1.78,4.31
		c0,1.68,0.59,3.11,1.78,4.3c1.11,1.09,2.64,2.09,4.59,3c3.12,1.01,5.75,2.58,7.89,4.71c2.26,2.25,3.39,4.96,3.39,8.15
		c0,3.21-1.13,5.94-3.39,8.2c-2.26,2.26-4.99,3.39-8.18,3.39c-3.19,0-5.92-1.14-8.18-3.42c-1.81-1.81-2.89-3.91-3.25-6.3l2.08-0.76
		c0.23,2.12,1.13,3.96,2.71,5.54c1.84,1.84,4.05,2.76,6.64,2.76c2.6,0,4.83-0.92,6.67-2.76c1.84-1.84,2.76-4.06,2.76-6.67
		c0-2.59-0.92-4.8-2.76-6.64C583.69,166.57,581.71,165.28,579.37,164.32z"/>
</g>
<g>
	<path class="st0" d="M75.3,203.18l4.2,11.54l4.2-11.54h0.81l-5.01,13.75l-5-13.75H75.3z"/>
	<path class="st0" d="M89.35,207.63c1.28,0,2.36,0.45,3.26,1.35s1.35,1.99,1.35,3.27c0,1.27-0.45,2.36-1.35,3.26
		c-0.9,0.9-1.99,1.35-3.26,1.35c-1.27,0-2.36-0.45-3.26-1.35c-0.9-0.9-1.35-1.99-1.35-3.26c0-1.28,0.45-2.37,1.35-3.27
		S88.08,207.63,89.35,207.63z M86.65,209.55c-0.75,0.74-1.12,1.64-1.12,2.7s0.37,1.95,1.12,2.69c0.74,0.74,1.64,1.11,2.7,1.11
		c1.05,0,1.95-0.37,2.7-1.11c0.74-0.74,1.12-1.64,1.12-2.69s-0.37-1.95-1.12-2.7s-1.64-1.12-2.7-1.12
		C88.3,208.43,87.4,208.81,86.65,209.55z"/>
	<path class="st0" d="M97.15,208.38v-3.51h0.76v3.51h1.68v0.76h-1.68v7.49h-0.76v-7.49h-1.68v-0.76H97.15z"/>
	<path class="st0" d="M101.6,208.38h0.76v1.5c0.16-0.22,0.34-0.44,0.55-0.65c0.67-0.67,1.35-1.02,2.05-1.05V209
		c-0.48,0.02-0.97,0.29-1.48,0.8c-0.72,0.71-1.09,1.56-1.12,2.56v4.26h-0.76V208.38z"/>
	<path class="st0" d="M108.17,215.08c0.71,0.65,1.56,0.97,2.54,0.97c1.05,0,1.95-0.37,2.7-1.12c0.1-0.1,0.18-0.19,0.27-0.29
		l0.8,0.29c-0.15,0.2-0.31,0.39-0.5,0.58c-0.9,0.9-1.99,1.35-3.27,1.35c-1.27,0-2.36-0.45-3.26-1.35c-0.9-0.9-1.35-1.99-1.35-3.27
		c0-1.27,0.45-2.36,1.35-3.26s1.99-1.35,3.26-1.35c1.09,0,2.05,0.33,2.86,0.98c0.13,0.11,0.27,0.24,0.4,0.37
		c0.05,0.05,0.1,0.1,0.14,0.15l-0.57,0.57L108.17,215.08z M112.99,209.19c-0.65-0.5-1.42-0.76-2.28-0.76
		c-1.05,0-1.94,0.37-2.69,1.11c-0.74,0.74-1.12,1.64-1.12,2.69c0,0.87,0.25,1.63,0.76,2.28L112.99,209.19z"/>
	<path class="st0" d="M129.5,214.64l0.8,0.29c-0.15,0.2-0.31,0.39-0.5,0.58c-0.9,0.9-1.99,1.35-3.27,1.35
		c-1.27,0-2.36-0.45-3.26-1.35c-0.9-0.9-1.35-1.99-1.35-3.27c0-1.27,0.45-2.36,1.35-3.26s1.99-1.35,3.26-1.35
		c1.28,0,2.37,0.45,3.27,1.35c0.18,0.18,0.35,0.38,0.5,0.57l-0.8,0.29c-0.08-0.1-0.17-0.2-0.27-0.3c-0.74-0.74-1.64-1.11-2.7-1.11
		c-1.05,0-1.94,0.37-2.69,1.11c-0.74,0.74-1.12,1.64-1.12,2.69s0.37,1.95,1.12,2.7s1.64,1.12,2.69,1.12c1.05,0,1.95-0.37,2.7-1.12
		C129.33,214.84,129.42,214.74,129.5,214.64z"/>
	<path class="st0" d="M136.42,207.63c1.28,0,2.36,0.45,3.26,1.35s1.35,1.99,1.35,3.27c0,1.27-0.45,2.36-1.35,3.26
		c-0.9,0.9-1.99,1.35-3.26,1.35c-1.27,0-2.36-0.45-3.26-1.35c-0.9-0.9-1.35-1.99-1.35-3.26c0-1.28,0.45-2.37,1.35-3.27
		S135.15,207.63,136.42,207.63z M133.73,209.55c-0.75,0.74-1.12,1.64-1.12,2.7s0.37,1.95,1.12,2.69c0.74,0.74,1.64,1.11,2.7,1.11
		c1.05,0,1.95-0.37,2.7-1.11c0.74-0.74,1.12-1.64,1.12-2.69s-0.37-1.95-1.12-2.7s-1.64-1.12-2.7-1.12
		C135.37,208.43,134.47,208.81,133.73,209.55z"/>
	<path class="st0" d="M143.05,208.38h0.76v0.19c0.47-0.45,1.03-0.68,1.69-0.68c0.68,0,1.25,0.24,1.73,0.71
		c0.13,0.13,0.24,0.27,0.34,0.42c0.1-0.15,0.21-0.29,0.34-0.42c0.48-0.48,1.05-0.71,1.73-0.71c0.68,0,1.25,0.24,1.73,0.71
		c0.45,0.46,0.69,1.01,0.71,1.65v6.37h-0.76v-6.37h0.01c-0.02-0.44-0.19-0.81-0.5-1.12c-0.34-0.33-0.74-0.5-1.2-0.5
		c-0.46,0-0.86,0.17-1.2,0.5c-0.33,0.33-0.5,0.74-0.5,1.23v6.25h-0.76v-6.37h0.01c-0.02-0.44-0.19-0.81-0.5-1.12
		c-0.34-0.33-0.74-0.5-1.2-0.5s-0.86,0.17-1.19,0.5c-0.29,0.29-0.46,0.64-0.5,1.05v6.43h-0.76V208.38z"/>
	<path class="st0" d="M154.6,208.38h0.76v1.16c0.14-0.19,0.3-0.38,0.48-0.55c0.9-0.9,1.99-1.34,3.26-1.34
		c1.28,0,2.36,0.45,3.26,1.35c0.9,0.9,1.35,1.99,1.35,3.26c0,1.27-0.45,2.36-1.35,3.26c-0.9,0.9-1.99,1.35-3.26,1.35
		c-1.27,0-2.36-0.45-3.26-1.35c-0.18-0.18-0.34-0.36-0.48-0.55v4.82h-0.76V208.38z M155.35,211.46v1.58
		c0.15,0.72,0.49,1.36,1.04,1.91c0.74,0.74,1.64,1.12,2.7,1.12s1.95-0.37,2.7-1.12s1.12-1.64,1.12-2.7s-0.37-1.95-1.12-2.7
		s-1.64-1.12-2.7-1.12s-1.95,0.37-2.7,1.12C155.84,210.1,155.5,210.73,155.35,211.46z"/>
	<path class="st0" d="M166.55,203.18v13.44h-0.76v-13.44H166.55z"/>
	<path class="st0" d="M170.64,215.08c0.71,0.65,1.56,0.97,2.54,0.97c1.05,0,1.95-0.37,2.7-1.12c0.1-0.1,0.18-0.19,0.27-0.29
		l0.8,0.29c-0.15,0.2-0.31,0.39-0.5,0.58c-0.9,0.9-1.99,1.35-3.27,1.35c-1.27,0-2.36-0.45-3.26-1.35c-0.9-0.9-1.35-1.99-1.35-3.27
		c0-1.27,0.45-2.36,1.35-3.26s1.99-1.35,3.26-1.35c1.09,0,2.05,0.33,2.86,0.98c0.13,0.11,0.27,0.24,0.4,0.37
		c0.05,0.05,0.1,0.1,0.14,0.15l-0.57,0.57L170.64,215.08z M175.47,209.19c-0.65-0.5-1.42-0.76-2.28-0.76
		c-1.05,0-1.94,0.37-2.69,1.11c-0.74,0.74-1.12,1.64-1.12,2.69c0,0.87,0.25,1.63,0.76,2.28L175.47,209.19z"/>
	<path class="st0" d="M183.92,208.38l-2.12,3.68l-0.03,0.04l0.03,0.04l2.59,4.48h-0.87l-2.15-3.72l-2.15,3.72h-0.88l2.6-4.48
		l0.02-0.04l-0.02-0.04l-2.12-3.68h0.87l1.69,2.91l1.68-2.91H183.92z"/>
	<path class="st0" d="M187.84,215.08c0.71,0.65,1.56,0.97,2.54,0.97c1.05,0,1.95-0.37,2.7-1.12c0.1-0.1,0.18-0.19,0.27-0.29
		l0.8,0.29c-0.15,0.2-0.31,0.39-0.5,0.58c-0.9,0.9-1.99,1.35-3.27,1.35c-1.27,0-2.36-0.45-3.26-1.35c-0.9-0.9-1.35-1.99-1.35-3.27
		c0-1.27,0.45-2.36,1.35-3.26s1.99-1.35,3.26-1.35c1.09,0,2.05,0.33,2.86,0.98c0.13,0.11,0.27,0.24,0.4,0.37
		c0.05,0.05,0.1,0.1,0.14,0.15l-0.57,0.57L187.84,215.08z M192.67,209.19c-0.65-0.5-1.42-0.76-2.28-0.76
		c-1.05,0-1.94,0.37-2.69,1.11c-0.74,0.74-1.12,1.64-1.12,2.69c0,0.87,0.25,1.63,0.76,2.28L192.67,209.19z"/>
	<path class="st0" d="M203.68,215.08c0.71,0.65,1.56,0.97,2.54,0.97c1.05,0,1.95-0.37,2.7-1.12c0.1-0.1,0.18-0.19,0.27-0.29
		l0.8,0.29c-0.15,0.2-0.31,0.39-0.5,0.58c-0.9,0.9-1.99,1.35-3.27,1.35c-1.27,0-2.36-0.45-3.26-1.35c-0.9-0.9-1.35-1.99-1.35-3.27
		c0-1.27,0.45-2.36,1.35-3.26s1.99-1.35,3.26-1.35c1.09,0,2.05,0.33,2.86,0.98c0.13,0.11,0.27,0.24,0.4,0.37
		c0.05,0.05,0.1,0.1,0.14,0.15l-0.57,0.57L203.68,215.08z M208.5,209.19c-0.65-0.5-1.42-0.76-2.28-0.76c-1.05,0-1.94,0.37-2.69,1.11
		c-0.74,0.74-1.12,1.64-1.12,2.69c0,0.87,0.25,1.63,0.76,2.28L208.5,209.19z M207.63,204.97l-2.06,1.57h-0.71l1.37-1.57H207.63z"/>
	<path class="st0" d="M215.2,215.24l3.17-6.87h0.87l-4.05,8.47l-4.05-8.47h0.87L215.2,215.24z"/>
	<path class="st0" d="M222.5,215.08c0.71,0.65,1.56,0.97,2.54,0.97c1.05,0,1.95-0.37,2.7-1.12c0.1-0.1,0.18-0.19,0.27-0.29l0.8,0.29
		c-0.15,0.2-0.31,0.39-0.5,0.58c-0.9,0.9-1.99,1.35-3.27,1.35c-1.27,0-2.36-0.45-3.26-1.35c-0.9-0.9-1.35-1.99-1.35-3.27
		c0-1.27,0.45-2.36,1.35-3.26s1.99-1.35,3.26-1.35c1.09,0,2.05,0.33,2.86,0.98c0.13,0.11,0.27,0.24,0.4,0.37
		c0.05,0.05,0.1,0.1,0.14,0.15l-0.57,0.57L222.5,215.08z M227.32,209.19c-0.65-0.5-1.42-0.76-2.28-0.76c-1.05,0-1.94,0.37-2.69,1.11
		c-0.74,0.74-1.12,1.64-1.12,2.69c0,0.87,0.25,1.63,0.76,2.28L227.32,209.19z M224.16,204.97l1.37,1.57h-0.71l-2.06-1.57H224.16z"/>
	<path class="st0" d="M231.57,210.21v6.41h-0.76v-8.25h0.76v0.53c0.69-0.68,1.49-1.02,2.4-1.02c0.97,0,1.77,0.31,2.38,0.92
		c0.61,0.61,0.92,1.38,0.94,2.31v5.52h-0.76v-5.45c0-0.7-0.25-1.3-0.76-1.79c-0.51-0.5-1.11-0.74-1.8-0.74s-1.29,0.24-1.8,0.73
		C231.9,209.64,231.7,209.92,231.57,210.21z"/>
	<path class="st0" d="M241.38,215.08c0.71,0.65,1.56,0.97,2.54,0.97c1.05,0,1.95-0.37,2.7-1.12c0.1-0.1,0.18-0.19,0.27-0.29
		l0.8,0.29c-0.15,0.2-0.31,0.39-0.5,0.58c-0.9,0.9-1.99,1.35-3.27,1.35c-1.27,0-2.36-0.45-3.26-1.35c-0.9-0.9-1.35-1.99-1.35-3.27
		c0-1.27,0.45-2.36,1.35-3.26s1.99-1.35,3.26-1.35c1.09,0,2.05,0.33,2.86,0.98c0.13,0.11,0.27,0.24,0.4,0.37
		c0.05,0.05,0.1,0.1,0.14,0.15l-0.57,0.57L241.38,215.08z M246.2,209.19c-0.65-0.5-1.42-0.76-2.28-0.76c-1.05,0-1.94,0.37-2.69,1.11
		c-0.74,0.74-1.12,1.64-1.12,2.69c0,0.87,0.25,1.63,0.76,2.28L246.2,209.19z"/>
	<path class="st0" d="M249.69,208.38h0.76v0.19c0.47-0.45,1.03-0.68,1.69-0.68c0.68,0,1.25,0.24,1.73,0.71
		c0.13,0.13,0.24,0.27,0.34,0.42c0.1-0.15,0.21-0.29,0.34-0.42c0.48-0.48,1.05-0.71,1.73-0.71c0.68,0,1.25,0.24,1.73,0.71
		c0.45,0.46,0.69,1.01,0.71,1.65v6.37h-0.76v-6.37h0.01c-0.02-0.44-0.19-0.81-0.5-1.12c-0.34-0.33-0.74-0.5-1.2-0.5
		c-0.46,0-0.86,0.17-1.2,0.5c-0.33,0.33-0.5,0.74-0.5,1.23v6.25h-0.76v-6.37h0.01c-0.02-0.44-0.19-0.81-0.5-1.12
		c-0.34-0.33-0.74-0.5-1.2-0.5s-0.86,0.17-1.19,0.5c-0.29,0.29-0.46,0.64-0.5,1.05v6.43h-0.76V208.38z"/>
	<path class="st0" d="M262.81,215.08c0.71,0.65,1.56,0.97,2.54,0.97c1.05,0,1.95-0.37,2.7-1.12c0.1-0.1,0.18-0.19,0.27-0.29
		l0.8,0.29c-0.15,0.2-0.31,0.39-0.5,0.58c-0.9,0.9-1.99,1.35-3.27,1.35c-1.27,0-2.36-0.45-3.26-1.35c-0.9-0.9-1.35-1.99-1.35-3.27
		c0-1.27,0.45-2.36,1.35-3.26s1.99-1.35,3.26-1.35c1.09,0,2.05,0.33,2.86,0.98c0.13,0.11,0.27,0.24,0.4,0.37
		c0.05,0.05,0.1,0.1,0.14,0.15l-0.57,0.57L262.81,215.08z M267.63,209.19c-0.65-0.5-1.42-0.76-2.28-0.76
		c-1.05,0-1.94,0.37-2.69,1.11c-0.74,0.74-1.12,1.64-1.12,2.69c0,0.87,0.25,1.63,0.76,2.28L267.63,209.19z"/>
	<path class="st0" d="M271.88,210.21v6.41h-0.76v-8.25h0.76v0.53c0.69-0.68,1.49-1.02,2.4-1.02c0.97,0,1.77,0.31,2.38,0.92
		c0.61,0.61,0.92,1.38,0.94,2.31v5.52h-0.76v-5.45c0-0.7-0.25-1.3-0.76-1.79c-0.51-0.5-1.11-0.74-1.8-0.74s-1.29,0.24-1.8,0.73
		C272.21,209.64,272.01,209.92,271.88,210.21z"/>
	<path class="st0" d="M281.29,208.38v-3.51h0.76v3.51h1.68v0.76h-1.68v7.49h-0.76v-7.49h-1.68v-0.76H281.29z"/>
	<path class="st0" d="M286.82,205.67c0.15,0.15,0.22,0.32,0.22,0.53c0,0.21-0.07,0.39-0.22,0.54s-0.33,0.22-0.53,0.22
		s-0.39-0.07-0.53-0.22c-0.15-0.15-0.22-0.32-0.22-0.54c0-0.21,0.07-0.38,0.22-0.53c0.15-0.15,0.33-0.22,0.53-0.22
		S286.68,205.52,286.82,205.67z M286.67,208.38v8.25h-0.76v-8.25H286.67z"/>
	<path class="st0" d="M290.93,215.08c0.71,0.65,1.56,0.97,2.54,0.97c1.05,0,1.95-0.37,2.7-1.12c0.1-0.1,0.18-0.19,0.27-0.29
		l0.8,0.29c-0.15,0.2-0.31,0.39-0.5,0.58c-0.9,0.9-1.99,1.35-3.27,1.35c-1.27,0-2.36-0.45-3.26-1.35c-0.9-0.9-1.35-1.99-1.35-3.27
		c0-1.27,0.45-2.36,1.35-3.26s1.99-1.35,3.26-1.35c1.09,0,2.05,0.33,2.86,0.98c0.13,0.11,0.27,0.24,0.4,0.37
		c0.05,0.05,0.1,0.1,0.14,0.15l-0.57,0.57L290.93,215.08z M295.75,209.19c-0.65-0.5-1.42-0.76-2.28-0.76
		c-1.05,0-1.94,0.37-2.69,1.11c-0.74,0.74-1.12,1.64-1.12,2.69c0,0.87,0.25,1.63,0.76,2.28L295.75,209.19z"/>
	<path class="st0" d="M300,203.18v13.44h-0.76v-13.44H300z"/>
	<path class="st0" d="M310.03,215.08c0.71,0.65,1.56,0.97,2.54,0.97c1.05,0,1.95-0.37,2.7-1.12c0.1-0.1,0.18-0.19,0.27-0.29
		l0.8,0.29c-0.15,0.2-0.31,0.39-0.5,0.58c-0.9,0.9-1.99,1.35-3.27,1.35c-1.27,0-2.36-0.45-3.26-1.35c-0.9-0.9-1.35-1.99-1.35-3.27
		c0-1.27,0.45-2.36,1.35-3.26s1.99-1.35,3.26-1.35c1.09,0,2.05,0.33,2.86,0.98c0.13,0.11,0.27,0.24,0.4,0.37
		c0.05,0.05,0.1,0.1,0.14,0.15l-0.57,0.57L310.03,215.08z M314.85,209.19c-0.65-0.5-1.42-0.76-2.28-0.76
		c-1.05,0-1.94,0.37-2.69,1.11c-0.74,0.74-1.12,1.64-1.12,2.69c0,0.87,0.25,1.63,0.76,2.28L314.85,209.19z"/>
	<path class="st0" d="M319.52,208.38v-3.51h0.76v3.51h1.68v0.76h-1.68v7.49h-0.76v-7.49h-1.68v-0.76H319.52z"/>
	<path class="st0" d="M331.49,215.08c0.71,0.65,1.56,0.97,2.54,0.97c1.05,0,1.95-0.37,2.7-1.12c0.1-0.1,0.18-0.19,0.27-0.29
		l0.8,0.29c-0.15,0.2-0.31,0.39-0.5,0.58c-0.9,0.9-1.99,1.35-3.27,1.35c-1.27,0-2.36-0.45-3.26-1.35c-0.9-0.9-1.35-1.99-1.35-3.27
		c0-1.27,0.45-2.36,1.35-3.26s1.99-1.35,3.26-1.35c1.09,0,2.05,0.33,2.86,0.98c0.13,0.11,0.27,0.24,0.4,0.37
		c0.05,0.05,0.1,0.1,0.14,0.15l-0.57,0.57L331.49,215.08z M336.31,209.19c-0.66-0.5-1.42-0.76-2.28-0.76
		c-1.05,0-1.94,0.37-2.69,1.11c-0.75,0.74-1.12,1.64-1.12,2.69c0,0.87,0.25,1.63,0.76,2.28L336.31,209.19z M335.45,204.97
		l-2.06,1.57h-0.71l1.37-1.57H335.45z"/>
	<path class="st0" d="M346.88,214.64l0.8,0.29c-0.15,0.2-0.31,0.39-0.5,0.58c-0.9,0.9-1.99,1.35-3.27,1.35
		c-1.27,0-2.36-0.45-3.26-1.35c-0.9-0.9-1.35-1.99-1.35-3.27c0-1.27,0.45-2.36,1.35-3.26s1.99-1.35,3.26-1.35
		c1.28,0,2.37,0.45,3.27,1.35c0.18,0.18,0.35,0.38,0.5,0.57l-0.8,0.29c-0.08-0.1-0.17-0.2-0.27-0.3c-0.74-0.74-1.64-1.11-2.7-1.11
		c-1.05,0-1.94,0.37-2.69,1.11c-0.75,0.74-1.12,1.64-1.12,2.69s0.37,1.95,1.12,2.7c0.74,0.74,1.64,1.12,2.69,1.12
		c1.05,0,1.95-0.37,2.7-1.12C346.7,214.84,346.79,214.74,346.88,214.64z"/>
	<path class="st0" d="M353.8,207.63c1.28,0,2.36,0.45,3.26,1.35s1.35,1.99,1.35,3.27c0,1.27-0.45,2.36-1.35,3.26
		c-0.9,0.9-1.99,1.35-3.26,1.35c-1.27,0-2.36-0.45-3.26-1.35c-0.9-0.9-1.35-1.99-1.35-3.26c0-1.28,0.45-2.37,1.35-3.27
		S352.53,207.63,353.8,207.63z M351.1,209.55c-0.75,0.74-1.12,1.64-1.12,2.7s0.37,1.95,1.12,2.69c0.74,0.74,1.64,1.11,2.7,1.11
		s1.95-0.37,2.7-1.11c0.74-0.74,1.12-1.64,1.12-2.69s-0.37-1.95-1.12-2.7c-0.75-0.74-1.64-1.12-2.7-1.12S351.85,208.81,351.1,209.55
		z"/>
	<path class="st0" d="M361.18,210.21v6.41h-0.76v-8.25h0.76v0.53c0.69-0.68,1.49-1.02,2.4-1.02c0.97,0,1.77,0.31,2.38,0.92
		c0.61,0.61,0.92,1.38,0.94,2.31v5.52h-0.76v-5.45c0-0.7-0.25-1.3-0.76-1.79c-0.51-0.5-1.11-0.74-1.8-0.74s-1.29,0.24-1.8,0.73
		C361.51,209.64,361.31,209.92,361.18,210.21z"/>
	<path class="st0" d="M373.53,207.63c1.28,0,2.36,0.45,3.26,1.35s1.35,1.99,1.35,3.27c0,1.27-0.45,2.36-1.35,3.26
		c-0.9,0.9-1.99,1.35-3.26,1.35c-1.27,0-2.36-0.45-3.26-1.35c-0.9-0.9-1.35-1.99-1.35-3.26c0-1.28,0.45-2.37,1.35-3.27
		S372.25,207.63,373.53,207.63z M370.83,209.55c-0.75,0.74-1.12,1.64-1.12,2.7s0.37,1.95,1.12,2.69c0.74,0.74,1.64,1.11,2.7,1.11
		c1.05,0,1.95-0.37,2.7-1.11c0.75-0.74,1.12-1.64,1.12-2.69s-0.37-1.95-1.12-2.7c-0.74-0.74-1.64-1.12-2.7-1.12
		C372.47,208.43,371.57,208.81,370.83,209.55z"/>
	<path class="st0" d="M380.15,208.38h0.76v0.19c0.47-0.45,1.03-0.68,1.69-0.68c0.68,0,1.25,0.24,1.73,0.71
		c0.13,0.13,0.24,0.27,0.34,0.42c0.09-0.15,0.21-0.29,0.34-0.42c0.48-0.48,1.05-0.71,1.73-0.71s1.25,0.24,1.73,0.71
		c0.45,0.46,0.69,1.01,0.71,1.65v6.37h-0.76v-6.37h0.01c-0.02-0.44-0.19-0.81-0.5-1.12c-0.34-0.33-0.74-0.5-1.2-0.5
		s-0.86,0.17-1.2,0.5c-0.33,0.33-0.5,0.74-0.5,1.23v6.25h-0.76v-6.37h0.01c-0.02-0.44-0.19-0.81-0.5-1.12
		c-0.34-0.33-0.74-0.5-1.2-0.5s-0.86,0.17-1.19,0.5c-0.29,0.29-0.46,0.64-0.5,1.05v6.43h-0.76V208.38z"/>
	<path class="st0" d="M392.78,205.67c0.15,0.15,0.22,0.32,0.22,0.53c0,0.21-0.07,0.39-0.22,0.54s-0.33,0.22-0.53,0.22
		s-0.39-0.07-0.53-0.22c-0.15-0.15-0.22-0.32-0.22-0.54c0-0.21,0.07-0.38,0.22-0.53c0.15-0.15,0.33-0.22,0.53-0.22
		S392.63,205.52,392.78,205.67z M392.62,208.38v8.25h-0.76v-8.25H392.62z"/>
	<path class="st0" d="M404,219.77h-0.76v-4.83c-0.15,0.2-0.31,0.38-0.48,0.56c-0.9,0.9-1.99,1.35-3.27,1.35
		c-1.27,0-2.36-0.45-3.26-1.35c-0.9-0.9-1.35-1.99-1.35-3.26c0-1.28,0.45-2.36,1.35-3.26c0.9-0.9,1.99-1.35,3.26-1.35
		c1.28,0,2.37,0.45,3.27,1.34c0.17,0.18,0.33,0.37,0.48,0.56v-1.17H404V219.77z M403.25,212.99v-1.5c-0.14-0.74-0.49-1.39-1.05-1.95
		c-0.75-0.74-1.64-1.12-2.7-1.12s-1.95,0.37-2.7,1.12c-0.75,0.74-1.12,1.64-1.12,2.7s0.37,1.95,1.12,2.7
		c0.74,0.74,1.64,1.12,2.7,1.12s1.95-0.37,2.7-1.12C402.76,214.38,403.11,213.73,403.25,212.99z"/>
	<path class="st0" d="M409.92,216.74c-1.03,0-1.85-0.31-2.46-0.92s-0.92-1.38-0.94-2.31v-5.14h0.76v5.07c0,0.7,0.25,1.3,0.76,1.79
		c0.5,0.5,1.13,0.75,1.87,0.75c0.69,0,1.29-0.25,1.8-0.74c0.51-0.5,0.76-1.09,0.76-1.79v-5.07h0.76v5.14
		c-0.02,0.93-0.33,1.7-0.94,2.31S410.89,216.74,409.92,216.74z"/>
	<path class="st0" d="M417.32,215.08c0.71,0.65,1.56,0.97,2.54,0.97c1.05,0,1.95-0.37,2.7-1.12c0.1-0.1,0.18-0.19,0.27-0.29
		l0.8,0.29c-0.15,0.2-0.31,0.39-0.5,0.58c-0.9,0.9-1.99,1.35-3.27,1.35c-1.27,0-2.36-0.45-3.26-1.35c-0.9-0.9-1.35-1.99-1.35-3.27
		c0-1.27,0.45-2.36,1.35-3.26s1.99-1.35,3.26-1.35c1.09,0,2.05,0.33,2.86,0.98c0.13,0.11,0.27,0.24,0.4,0.37
		c0.05,0.05,0.1,0.1,0.14,0.15l-0.57,0.57L417.32,215.08z M422.14,209.19c-0.66-0.5-1.42-0.76-2.28-0.76
		c-1.05,0-1.94,0.37-2.69,1.11c-0.75,0.74-1.12,1.64-1.12,2.69c0,0.87,0.25,1.63,0.76,2.28L422.14,209.19z"/>
	<path class="st0" d="M440.49,216.62h-0.76v-1.68c-0.15,0.2-0.3,0.38-0.48,0.56c-0.9,0.9-1.99,1.35-3.27,1.35
		c-1.27,0-2.36-0.45-3.26-1.35c-0.9-0.9-1.35-1.99-1.35-3.26c0-1.28,0.45-2.37,1.35-3.27s1.99-1.35,3.26-1.35
		c1.28,0,2.37,0.45,3.27,1.35c0.17,0.18,0.33,0.37,0.48,0.56v-1.17h0.76V216.62z M439.73,212.99v-1.5
		c-0.14-0.74-0.49-1.39-1.05-1.95c-0.74-0.74-1.64-1.12-2.7-1.12c-1.05,0-1.95,0.37-2.7,1.12c-0.75,0.74-1.12,1.64-1.12,2.7
		s0.37,1.95,1.12,2.69c0.74,0.74,1.64,1.11,2.7,1.11c1.05,0,1.95-0.37,2.7-1.12C439.24,214.37,439.59,213.73,439.73,212.99z"/>
	<path class="st0" d="M446.41,216.74c-1.03,0-1.85-0.31-2.46-0.92s-0.92-1.38-0.94-2.31v-5.14h0.76v5.07c0,0.7,0.25,1.3,0.76,1.79
		c0.5,0.5,1.13,0.75,1.87,0.75c0.69,0,1.29-0.25,1.8-0.74c0.51-0.5,0.76-1.09,0.76-1.79v-5.07h0.76v5.14
		c-0.02,0.93-0.33,1.7-0.94,2.31S447.38,216.74,446.41,216.74z"/>
	<path class="st0" d="M465.25,214.64l0.8,0.29c-0.15,0.2-0.31,0.39-0.5,0.58c-0.9,0.9-1.99,1.35-3.27,1.35
		c-1.27,0-2.36-0.45-3.26-1.35c-0.9-0.9-1.35-1.99-1.35-3.27c0-1.27,0.45-2.36,1.35-3.26s1.99-1.35,3.26-1.35
		c1.28,0,2.37,0.45,3.27,1.35c0.18,0.18,0.35,0.38,0.5,0.57l-0.8,0.29c-0.08-0.1-0.17-0.2-0.27-0.3c-0.74-0.74-1.64-1.11-2.7-1.11
		c-1.05,0-1.94,0.37-2.69,1.11c-0.75,0.74-1.12,1.64-1.12,2.69s0.37,1.95,1.12,2.7c0.74,0.74,1.64,1.12,2.69,1.12
		c1.05,0,1.95-0.37,2.7-1.12C465.08,214.84,465.17,214.74,465.25,214.64z"/>
	<path class="st0" d="M472.17,207.63c1.28,0,2.36,0.45,3.26,1.35s1.35,1.99,1.35,3.27c0,1.27-0.45,2.36-1.35,3.26
		c-0.9,0.9-1.99,1.35-3.26,1.35c-1.27,0-2.36-0.45-3.26-1.35c-0.9-0.9-1.35-1.99-1.35-3.26c0-1.28,0.45-2.37,1.35-3.27
		S470.9,207.63,472.17,207.63z M469.48,209.55c-0.75,0.74-1.12,1.64-1.12,2.7s0.37,1.95,1.12,2.69c0.74,0.74,1.64,1.11,2.7,1.11
		s1.95-0.37,2.7-1.11c0.74-0.74,1.12-1.64,1.12-2.69s-0.37-1.95-1.12-2.7c-0.75-0.74-1.64-1.12-2.7-1.12
		S470.22,208.81,469.48,209.55z"/>
	<path class="st0" d="M480.37,215.08c0.71,0.65,1.56,0.97,2.54,0.97c1.05,0,1.95-0.37,2.7-1.12c0.1-0.1,0.18-0.19,0.27-0.29
		l0.8,0.29c-0.15,0.2-0.31,0.39-0.5,0.58c-0.9,0.9-1.99,1.35-3.27,1.35c-1.27,0-2.36-0.45-3.26-1.35c-0.9-0.9-1.35-1.99-1.35-3.27
		c0-1.27,0.45-2.36,1.35-3.26s1.99-1.35,3.26-1.35c1.09,0,2.05,0.33,2.86,0.98c0.13,0.11,0.27,0.24,0.4,0.37
		c0.05,0.05,0.1,0.1,0.14,0.15l-0.57,0.57L480.37,215.08z M485.19,209.19c-0.66-0.5-1.42-0.76-2.28-0.76
		c-1.05,0-1.94,0.37-2.69,1.11c-0.75,0.74-1.12,1.64-1.12,2.69c0,0.87,0.25,1.63,0.76,2.28L485.19,209.19z"/>
	<path class="st0" d="M492.09,216.74c-1.03,0-1.85-0.31-2.46-0.92s-0.92-1.38-0.94-2.31v-5.14h0.76v5.07c0,0.7,0.25,1.3,0.76,1.79
		c0.5,0.5,1.13,0.75,1.87,0.75c0.69,0,1.29-0.25,1.8-0.74c0.51-0.5,0.76-1.09,0.76-1.79v-5.07h0.76v5.14
		c-0.02,0.93-0.33,1.7-0.94,2.31S493.06,216.74,492.09,216.74z"/>
	<path class="st0" d="M497.91,208.38h0.76v1.5c0.16-0.22,0.34-0.44,0.55-0.65c0.67-0.67,1.35-1.02,2.05-1.05V209
		c-0.48,0.02-0.97,0.29-1.48,0.8c-0.72,0.71-1.09,1.56-1.12,2.56v4.26h-0.76V208.38z"/>
	<path class="st0" d="M517.79,216.62h-0.76v-1.68c-0.15,0.2-0.3,0.38-0.48,0.56c-0.9,0.9-1.99,1.35-3.27,1.35
		c-1.27,0-2.36-0.45-3.26-1.35c-0.9-0.9-1.35-1.99-1.35-3.26c0-1.28,0.45-2.37,1.35-3.27s1.99-1.35,3.26-1.35
		c1.28,0,2.37,0.45,3.27,1.35c0.17,0.18,0.33,0.37,0.48,0.56v-6.36h0.76V216.62z M517.04,212.99v-1.5
		c-0.14-0.74-0.49-1.39-1.05-1.95c-0.74-0.74-1.64-1.12-2.7-1.12c-1.05,0-1.95,0.37-2.7,1.12c-0.75,0.74-1.12,1.64-1.12,2.7
		s0.37,1.95,1.12,2.69c0.74,0.74,1.64,1.11,2.7,1.11c1.05,0,1.95-0.37,2.7-1.12C516.55,214.37,516.9,213.73,517.04,212.99z"/>
	<path class="st0" d="M520.67,204.57c-0.13-0.03-0.24-0.09-0.34-0.19c-0.15-0.15-0.23-0.32-0.23-0.54c0-0.21,0.07-0.38,0.22-0.53
		s0.33-0.22,0.53-0.22s0.38,0.07,0.53,0.22s0.22,0.32,0.22,0.53c0,0.12-0.02,0.23-0.06,0.33l-0.82,1.66h-0.55L520.67,204.57z"/>
	<path class="st0" d="M524.22,203.18v13.44h-0.76v-13.44H524.22z"/>
	<path class="st0" d="M529.17,212.38c-0.64-0.35-1.09-0.64-1.33-0.89c-0.39-0.39-0.58-0.85-0.58-1.39c0-0.55,0.19-1.02,0.58-1.41
		c0.39-0.39,0.85-0.58,1.39-0.58c0.55,0,1,0.18,1.36,0.54c0.35,0.35,0.52,0.75,0.52,1.2v0.04l-0.66,0.26
		c-0.06-0.43-0.19-0.74-0.4-0.96s-0.49-0.32-0.83-0.32c-0.34,0-0.62,0.12-0.86,0.36c-0.24,0.24-0.36,0.53-0.36,0.87
		c0,0.34,0.12,0.62,0.36,0.86c0.14,0.14,0.44,0.35,0.89,0.64c0.72,0.39,1.23,0.74,1.53,1.04c0.48,0.48,0.71,1.06,0.71,1.72
		c0,0.68-0.24,1.26-0.71,1.74c-0.48,0.48-1.05,0.72-1.73,0.72c-0.68,0-1.25-0.24-1.73-0.72c-0.48-0.48-0.71-1-0.71-1.57l0.75-0.19
		c0,0.49,0.17,0.9,0.5,1.23c0.33,0.33,0.73,0.5,1.2,0.5s0.86-0.17,1.2-0.5c0.33-0.33,0.5-0.73,0.5-1.21c0-0.46-0.17-0.86-0.5-1.19
		C530.08,212.99,529.72,212.73,529.17,212.38z"/>
	<path class="st0" d="M535.91,212.38c-0.64-0.35-1.09-0.64-1.33-0.89c-0.39-0.39-0.58-0.85-0.58-1.39c0-0.55,0.19-1.02,0.58-1.41
		c0.39-0.39,0.85-0.58,1.39-0.58c0.55,0,1,0.18,1.36,0.54c0.35,0.35,0.52,0.75,0.52,1.2v0.04l-0.66,0.26
		c-0.06-0.43-0.19-0.74-0.4-0.96s-0.49-0.32-0.83-0.32c-0.34,0-0.62,0.12-0.86,0.36c-0.24,0.24-0.36,0.53-0.36,0.87
		c0,0.34,0.12,0.62,0.36,0.86c0.14,0.14,0.44,0.35,0.89,0.64c0.72,0.39,1.23,0.74,1.53,1.04c0.48,0.48,0.71,1.06,0.71,1.72
		c0,0.68-0.24,1.26-0.71,1.74c-0.48,0.48-1.05,0.72-1.73,0.72c-0.68,0-1.25-0.24-1.73-0.72c-0.48-0.48-0.71-1-0.71-1.57l0.75-0.19
		c0,0.49,0.17,0.9,0.5,1.23c0.33,0.33,0.73,0.5,1.2,0.5s0.86-0.17,1.2-0.5c0.33-0.33,0.5-0.73,0.5-1.21c0-0.46-0.17-0.86-0.5-1.19
		C536.81,212.99,536.45,212.73,535.91,212.38z"/>
	<path class="st0" d="M544.48,207.63c1.28,0,2.36,0.45,3.26,1.35s1.35,1.99,1.35,3.27c0,1.27-0.45,2.36-1.35,3.26
		c-0.9,0.9-1.99,1.35-3.26,1.35c-1.27,0-2.36-0.45-3.26-1.35c-0.9-0.9-1.35-1.99-1.35-3.26c0-1.28,0.45-2.37,1.35-3.27
		S543.21,207.63,544.48,207.63z M541.79,209.55c-0.75,0.74-1.12,1.64-1.12,2.7s0.37,1.95,1.12,2.69c0.74,0.74,1.64,1.11,2.7,1.11
		c1.05,0,1.95-0.37,2.7-1.11c0.75-0.74,1.12-1.64,1.12-2.69s-0.37-1.95-1.12-2.7c-0.74-0.74-1.64-1.12-2.7-1.12
		C543.43,208.43,542.53,208.81,541.79,209.55z"/>
	<path class="st0" d="M554.51,216.74c-1.03,0-1.85-0.31-2.46-0.92s-0.92-1.38-0.94-2.31v-5.14h0.76v5.07c0,0.7,0.25,1.3,0.76,1.79
		c0.5,0.5,1.13,0.75,1.87,0.75c0.69,0,1.29-0.25,1.8-0.74c0.51-0.5,0.76-1.09,0.76-1.79v-5.07h0.76v5.14
		c-0.02,0.93-0.33,1.7-0.94,2.31S555.48,216.74,554.51,216.74z"/>
	<path class="st0" d="M569.24,216.62h-0.76v-1.68c-0.15,0.2-0.31,0.38-0.48,0.56c-0.9,0.9-1.99,1.35-3.27,1.35
		c-1.27,0-2.36-0.45-3.26-1.35c-0.9-0.9-1.35-1.99-1.35-3.26c0-1.28,0.45-2.37,1.35-3.27s1.99-1.35,3.26-1.35
		c1.28,0,2.37,0.45,3.27,1.35c0.17,0.18,0.33,0.37,0.48,0.56v-6.36h0.76V216.62z M568.49,212.99v-1.5
		c-0.14-0.74-0.49-1.39-1.05-1.95c-0.75-0.74-1.64-1.12-2.7-1.12s-1.95,0.37-2.7,1.12c-0.75,0.74-1.12,1.64-1.12,2.7
		s0.37,1.95,1.12,2.69c0.74,0.74,1.64,1.11,2.7,1.11s1.95-0.37,2.7-1.12C568,214.37,568.35,213.73,568.49,212.99z"/>
	<path class="st0" d="M575.16,216.74c-1.03,0-1.85-0.31-2.46-0.92s-0.92-1.38-0.94-2.31v-5.14h0.76v5.07c0,0.7,0.25,1.3,0.76,1.79
		c0.5,0.5,1.13,0.75,1.87,0.75c0.69,0,1.29-0.25,1.8-0.74c0.51-0.5,0.76-1.09,0.76-1.79v-5.07h0.76v5.14
		c-0.02,0.93-0.33,1.7-0.94,2.31S576.13,216.74,575.16,216.74z"/>
	<path class="st0" d="M581.75,210.21v6.41h-0.76v-8.25h0.76v0.53c0.69-0.68,1.49-1.02,2.4-1.02c0.97,0,1.77,0.31,2.38,0.92
		c0.61,0.61,0.92,1.38,0.94,2.31v5.52h-0.76v-5.45c0-0.7-0.25-1.3-0.76-1.79c-0.51-0.5-1.11-0.74-1.8-0.74s-1.29,0.24-1.8,0.73
		C582.08,209.64,581.88,209.92,581.75,210.21z"/>
</g>
<rect x="56.29" y="17.97" class="st1" width="605.41" height="216.22"/>
<rect x="28.19" y="47.97" class="st1" width="605.41" height="216.22"/>
</svg>
